<svg width="26" height="24" viewBox="0 0 26 24" fill="none" xmlns="http://www.w3.org/2000/svg">
<path d="M25 7.00289H18.925L19.9875 1.17789C20.0105 1.04821 20.0077 0.915274 19.9793 0.78667C19.9509 0.658066 19.8975 0.536315 19.822 0.428366C19.6696 0.210355 19.4369 0.0618035 19.175 0.0153907C18.9131 -0.0310222 18.6435 0.0285061 18.4255 0.180879C18.2075 0.333253 18.0589 0.565989 18.0125 0.827891L16.8875 7.00289H10.925L11.9875 1.17789C12.0339 0.91599 11.9744 0.646377 11.822 0.428366C11.6696 0.210355 11.4369 0.0618035 11.175 0.0153907C10.9131 -0.0310222 10.6435 0.0285061 10.4255 0.180879C10.2075 0.333253 10.0589 0.565989 10.0125 0.827891L8.8875 7.00289H2.45C2.18478 7.00289 1.93043 7.10825 1.74289 7.29578C1.55536 7.48332 1.45 7.73767 1.45 8.00289C1.45 8.26811 1.55536 8.52246 1.74289 8.71C1.93043 8.89753 2.18478 9.00289 2.45 9.00289H8.525L7.4375 15.0029H1C0.734784 15.0029 0.48043 15.1082 0.292893 15.2958C0.105357 15.4833 0 15.7377 0 16.0029C0 16.2681 0.105357 16.5225 0.292893 16.71C0.48043 16.8975 0.734784 17.0029 1 17.0029H7.075L6.0125 22.8279C5.98912 22.9576 5.99162 23.0907 6.01986 23.2194C6.04809 23.3482 6.10149 23.4701 6.177 23.5781C6.25251 23.6861 6.34864 23.7782 6.45984 23.8489C6.57105 23.9197 6.69515 23.9678 6.825 23.9904H7C7.23537 23.9911 7.46344 23.9087 7.64407 23.7578C7.8247 23.6069 7.94631 23.3971 7.9875 23.1654L9.1125 16.9904H15.075L14.0125 22.8154C13.9891 22.9451 13.9916 23.0782 14.0199 23.2069C14.0481 23.3357 14.1015 23.4576 14.177 23.5656C14.2525 23.6736 14.3486 23.7657 14.4598 23.8364C14.5711 23.9072 14.6951 23.9553 14.825 23.9779H15C15.2354 23.9786 15.4634 23.8962 15.6441 23.7453C15.8247 23.5944 15.9463 23.3846 15.9875 23.1529L17.1125 16.9779H23.55C23.8152 16.9779 24.0696 16.8725 24.2571 16.685C24.4446 16.4975 24.55 16.2431 24.55 15.9779C24.55 15.7127 24.4446 15.4583 24.2571 15.2708C24.0696 15.0832 23.8152 14.9779 23.55 14.9779H17.475L18.5625 8.97789H25C25.2652 8.97789 25.5196 8.87253 25.7071 8.685C25.8946 8.49746 26 8.24311 26 7.97789C26 7.71267 25.8946 7.45832 25.7071 7.27078C25.5196 7.08325 25.2652 6.97789 25 6.97789V7.00289ZM15.4375 15.0029H9.475L10.5625 9.00289H16.525L15.4375 15.0029Z" fill="white"/>
</svg>
