<svg width="24" height="24" viewBox="0 0 24 24" fill="none" xmlns="http://www.w3.org/2000/svg">
<path d="M13.0032 16.4532L11.2032 21.3375C11.1499 21.4811 11.054 21.6049 10.9283 21.6923C10.8026 21.7797 10.6532 21.8265 10.5001 21.8265C10.347 21.8265 10.1976 21.7797 10.0719 21.6923C9.94618 21.6049 9.85025 21.4811 9.79697 21.3375L7.99697 16.4532C7.95898 16.3501 7.89908 16.2564 7.82138 16.1787C7.74369 16.1011 7.65007 16.0411 7.54697 16.0032L2.6626 14.2032C2.51906 14.1499 2.39527 14.054 2.30786 13.9283C2.22044 13.8026 2.17358 13.6531 2.17358 13.5C2.17358 13.3469 2.22044 13.1975 2.30786 13.0718C2.39527 12.9461 2.51906 12.8502 2.6626 12.7969L7.54697 10.9969C7.65007 10.9589 7.74369 10.899 7.82138 10.8213C7.89908 10.7436 7.95898 10.65 7.99697 10.5469L9.79697 5.66253C9.85025 5.519 9.94618 5.39521 10.0719 5.3078C10.1976 5.22038 10.347 5.17352 10.5001 5.17352C10.6532 5.17352 10.8026 5.22038 10.9283 5.3078C11.054 5.39521 11.1499 5.519 11.2032 5.66253L13.0032 10.5469C13.0412 10.65 13.1011 10.7436 13.1788 10.8213C13.2565 10.899 13.3501 10.9589 13.4532 10.9969L18.3376 12.7969C18.4811 12.8502 18.6049 12.9461 18.6923 13.0718C18.7798 13.1975 18.8266 13.3469 18.8266 13.5C18.8266 13.6531 18.7798 13.8026 18.6923 13.9283C18.6049 14.054 18.4811 14.1499 18.3376 14.2032L13.4532 16.0032C13.3501 16.0411 13.2565 16.1011 13.1788 16.1787C13.1011 16.2564 13.0412 16.3501 13.0032 16.4532Z" stroke="#1DA1F2" stroke-width="1.5" stroke-linecap="round" stroke-linejoin="round"/>
<path d="M16.5 1.5V6" stroke="#1DA1F2" stroke-width="1.5" stroke-linecap="round" stroke-linejoin="round"/>
<path d="M18.75 3.75H14.25" stroke="#1DA1F2" stroke-width="1.5" stroke-linecap="round" stroke-linejoin="round"/>
<path d="M21 6.75V9.75" stroke="#1DA1F2" stroke-width="1.5" stroke-linecap="round" stroke-linejoin="round"/>
<path d="M22.5 8.25H19.5" stroke="#1DA1F2" stroke-width="1.5" stroke-linecap="round" stroke-linejoin="round"/>
</svg>
